# xmcd
#
# Track frame offsets:
#	150
#	14295
#	33244
#	49961
#	68242
#	82308
#	98646
#	115723
#	129284
#	149807
#	162659
#	178188
#	193995
#	209240
#	222934
#
# Disc length: 3181 seconds
#
# Revision: 1
# Processed by: cddbd v1.5.2PL0 Copyright (c) Steve Scherf et al.
# Submitted via: audiograbber 1.83.01
#
DISCID=ee0c6b0f
DTITLE=Various Artist - CDX 673
DYEAR=2019
DGENRE=Country
TTITLE0=Mitchell Tenpenny - Alcohol You Later
TTITLE1=Maren Morris - Girl
TTITLE2=Maren Morris - Girl (Radio Edit)
TTITLE3=Denny Strickland - Don't You Wanna
TTITLE4=David Lee Murphy - No Zip Code
TTITLE5=Cody Jinks - Somewhere Between I Love You And I'm Leavin'
TTITLE6=Tim McGraw - Thought About You
TTITLE7=Ryan Hurd - To A T
TTITLE8=Bubba T w.Bri Bagwell - Like A New Man
TTITLE9=Paulina Jayne - Make The Moves
TTITLE10=Kree Harrison - I Love The Lie
TTITLE11=Joe Denim - Pray For You
TTITLE12=Juna N Joey - Stay Young
TTITLE13=Joe Denim ft. Rachel Holder - Together Were A Ten (Radio Edit)
TTITLE14=Sarah Patrick - To Stay
EXTD=
EXTT0=
EXTT1=
EXTT2=
EXTT3=
EXTT4=
EXTT5=
EXTT6=
EXTT7=
EXTT8=
EXTT9=
EXTT10=
EXTT11=
EXTT12=
EXTT13=
EXTT14=
PLAYORDER=
